<mxfile host="www.draw.io" modified="2019-11-29T11:47:47.558Z" agent="Mozilla/5.0 (Windows NT 6.1; WOW64) AppleWebKit/537.36 (KHTML, like Gecko) Chrome/73.0.3683.103 Safari/537.36" etag="plg7-Fp2Wwt1ApPhVGyy" version="12.3.3" type="github" pages="1">
  <diagram name="Page-1" id="13e1069c-82ec-6db2-03f1-153e76fe0fe0">
    <mxGraphModel dx="2188" dy="551" grid="1" gridSize="10" guides="1" tooltips="1" connect="1" arrows="1" fold="1" page="1" pageScale="1" pageWidth="1100" pageHeight="850" background="#ffffff" math="0" shadow="0">
      <root>
        <mxCell id="0"/>
        <mxCell id="1" parent="0"/>
        <mxCell id="2iq9fQst8AqPEypmPXLH-124" value="" style="whiteSpace=wrap;html=1;shadow=0;strokeColor=#3333FF;" vertex="1" parent="1">
          <mxGeometry x="90" y="210" width="690" height="110" as="geometry"/>
        </mxCell>
        <mxCell id="7baba1c4bc27f4b0-2" value="&lt;pre style=&quot;background-color: rgb(255 , 255 , 255) ; font-size: 15pt&quot;&gt;KeyguardServiceDelegate&lt;/pre&gt;" style="shape=umlLifeline;perimeter=lifelinePerimeter;whiteSpace=wrap;html=1;container=1;collapsible=0;recursiveResize=0;outlineConnect=0;rounded=1;shadow=0;comic=0;labelBackgroundColor=none;strokeWidth=1;fontFamily=Verdana;fontSize=12;align=center;" parent="1" vertex="1">
          <mxGeometry x="190" y="73" width="250" height="580" as="geometry"/>
        </mxCell>
        <mxCell id="7baba1c4bc27f4b0-10" value="" style="html=1;points=[];perimeter=orthogonalPerimeter;rounded=0;shadow=0;comic=0;labelBackgroundColor=none;strokeWidth=1;fontFamily=Verdana;fontSize=12;align=center;" parent="7baba1c4bc27f4b0-2" vertex="1">
          <mxGeometry x="120" y="100" width="10" height="30" as="geometry"/>
        </mxCell>
        <mxCell id="2iq9fQst8AqPEypmPXLH-15" value="" style="html=1;points=[];perimeter=orthogonalPerimeter;" vertex="1" parent="7baba1c4bc27f4b0-2">
          <mxGeometry x="120" y="160" width="10" height="30" as="geometry"/>
        </mxCell>
        <mxCell id="2iq9fQst8AqPEypmPXLH-100" value="" style="html=1;points=[];perimeter=orthogonalPerimeter;" vertex="1" parent="7baba1c4bc27f4b0-2">
          <mxGeometry x="120" y="207" width="10" height="33" as="geometry"/>
        </mxCell>
        <mxCell id="7baba1c4bc27f4b0-8" value="PhoneWindowManager" style="shape=umlLifeline;perimeter=lifelinePerimeter;whiteSpace=wrap;html=1;container=1;collapsible=0;recursiveResize=0;outlineConnect=0;rounded=1;shadow=0;comic=0;labelBackgroundColor=none;strokeWidth=1;fontFamily=Verdana;fontSize=12;align=center;" parent="1" vertex="1">
          <mxGeometry x="30" y="72.5" width="150" height="570" as="geometry"/>
        </mxCell>
        <mxCell id="7baba1c4bc27f4b0-9" value="" style="html=1;points=[];perimeter=orthogonalPerimeter;rounded=0;shadow=0;comic=0;labelBackgroundColor=none;strokeWidth=1;fontFamily=Verdana;fontSize=12;align=center;" parent="7baba1c4bc27f4b0-8" vertex="1">
          <mxGeometry x="70" y="100" width="10" height="30" as="geometry"/>
        </mxCell>
        <mxCell id="2iq9fQst8AqPEypmPXLH-17" value="" style="html=1;points=[];perimeter=orthogonalPerimeter;" vertex="1" parent="7baba1c4bc27f4b0-8">
          <mxGeometry x="70" y="145" width="10" height="30" as="geometry"/>
        </mxCell>
        <mxCell id="2iq9fQst8AqPEypmPXLH-99" value="" style="html=1;points=[];perimeter=orthogonalPerimeter;" vertex="1" parent="7baba1c4bc27f4b0-8">
          <mxGeometry x="70" y="188" width="10" height="33" as="geometry"/>
        </mxCell>
        <mxCell id="7baba1c4bc27f4b0-11" value="bindKeyguard" style="html=1;verticalAlign=bottom;endArrow=block;entryX=0;entryY=0;labelBackgroundColor=none;fontFamily=Verdana;fontSize=12;edgeStyle=elbowEdgeStyle;elbow=vertical;" parent="1" source="7baba1c4bc27f4b0-9" target="7baba1c4bc27f4b0-10" edge="1">
          <mxGeometry relative="1" as="geometry">
            <mxPoint x="220" y="190" as="sourcePoint"/>
          </mxGeometry>
        </mxCell>
        <mxCell id="2iq9fQst8AqPEypmPXLH-1" value="&lt;pre style=&quot;background-color: rgb(255 , 255 , 255) ; font-size: 15pt&quot;&gt;&lt;pre style=&quot;font-size: 15pt&quot;&gt;KeyguardService&lt;/pre&gt;&lt;/pre&gt;" style="shape=umlLifeline;perimeter=lifelinePerimeter;whiteSpace=wrap;html=1;container=1;collapsible=0;recursiveResize=0;outlineConnect=0;rounded=1;shadow=0;comic=0;labelBackgroundColor=none;strokeWidth=1;fontFamily=Verdana;fontSize=12;align=center;" vertex="1" parent="1">
          <mxGeometry x="450" y="73" width="160" height="580" as="geometry"/>
        </mxCell>
        <mxCell id="2iq9fQst8AqPEypmPXLH-2" value="" style="html=1;points=[];perimeter=orthogonalPerimeter;rounded=0;shadow=0;comic=0;labelBackgroundColor=none;strokeWidth=1;fontFamily=Verdana;fontSize=12;align=center;" vertex="1" parent="2iq9fQst8AqPEypmPXLH-1">
          <mxGeometry x="75" y="115" width="10" height="15" as="geometry"/>
        </mxCell>
        <mxCell id="2iq9fQst8AqPEypmPXLH-20" value="" style="html=1;points=[];perimeter=orthogonalPerimeter;" vertex="1" parent="2iq9fQst8AqPEypmPXLH-1">
          <mxGeometry x="75" y="160" width="10" height="30" as="geometry"/>
        </mxCell>
        <mxCell id="2iq9fQst8AqPEypmPXLH-96" value="" style="html=1;points=[];perimeter=orthogonalPerimeter;" vertex="1" parent="2iq9fQst8AqPEypmPXLH-1">
          <mxGeometry x="75" y="205" width="10" height="33" as="geometry"/>
        </mxCell>
        <mxCell id="2iq9fQst8AqPEypmPXLH-7" value="bindService" style="text;html=1;align=center;verticalAlign=middle;resizable=0;points=[];;autosize=1;" vertex="1" parent="1">
          <mxGeometry x="400" y="180" width="80" height="20" as="geometry"/>
        </mxCell>
        <mxCell id="2iq9fQst8AqPEypmPXLH-8" value="&lt;pre style=&quot;background-color: rgb(255 , 255 , 255) ; font-size: 15pt&quot;&gt;&lt;pre style=&quot;font-size: 15pt&quot;&gt;KeyguardViewMediator&lt;/pre&gt;&lt;/pre&gt;" style="shape=umlLifeline;perimeter=lifelinePerimeter;whiteSpace=wrap;html=1;container=1;collapsible=0;recursiveResize=0;outlineConnect=0;rounded=1;shadow=0;comic=0;labelBackgroundColor=none;strokeWidth=1;fontFamily=Verdana;fontSize=12;align=center;" vertex="1" parent="1">
          <mxGeometry x="630" y="73" width="210" height="580" as="geometry"/>
        </mxCell>
        <mxCell id="2iq9fQst8AqPEypmPXLH-47" value="" style="html=1;points=[];perimeter=orthogonalPerimeter;" vertex="1" parent="2iq9fQst8AqPEypmPXLH-8">
          <mxGeometry x="100" y="271" width="10" height="30" as="geometry"/>
        </mxCell>
        <mxCell id="2iq9fQst8AqPEypmPXLH-113" value="" style="html=1;points=[];perimeter=orthogonalPerimeter;" vertex="1" parent="2iq9fQst8AqPEypmPXLH-8">
          <mxGeometry x="100" y="307" width="10" height="28" as="geometry"/>
        </mxCell>
        <mxCell id="2iq9fQst8AqPEypmPXLH-114" style="edgeStyle=orthogonalEdgeStyle;curved=1;rounded=0;orthogonalLoop=1;jettySize=auto;html=1;" edge="1" parent="2iq9fQst8AqPEypmPXLH-8">
          <mxGeometry relative="1" as="geometry">
            <mxPoint x="105" y="317" as="targetPoint"/>
            <mxPoint x="113" y="297" as="sourcePoint"/>
            <Array as="points">
              <mxPoint x="140" y="297"/>
              <mxPoint x="140" y="317"/>
              <mxPoint x="110" y="317"/>
            </Array>
          </mxGeometry>
        </mxCell>
        <mxCell id="2iq9fQst8AqPEypmPXLH-12" value="" style="edgeStyle=orthogonalEdgeStyle;rounded=0;orthogonalLoop=1;jettySize=auto;html=1;entryX=-0.1;entryY=0.367;entryDx=0;entryDy=0;entryPerimeter=0;" edge="1" parent="1" source="7baba1c4bc27f4b0-10" target="2iq9fQst8AqPEypmPXLH-2">
          <mxGeometry relative="1" as="geometry">
            <Array as="points">
              <mxPoint x="440" y="194"/>
              <mxPoint x="440" y="194"/>
            </Array>
          </mxGeometry>
        </mxCell>
        <mxCell id="2iq9fQst8AqPEypmPXLH-18" value="" style="edgeStyle=orthogonalEdgeStyle;rounded=0;orthogonalLoop=1;jettySize=auto;html=1;entryX=0;entryY=0.067;entryDx=0;entryDy=0;entryPerimeter=0;" edge="1" parent="1" source="2iq9fQst8AqPEypmPXLH-17" target="2iq9fQst8AqPEypmPXLH-15">
          <mxGeometry relative="1" as="geometry">
            <mxPoint x="305" y="242" as="targetPoint"/>
            <Array as="points">
              <mxPoint x="270" y="235"/>
              <mxPoint x="270" y="235"/>
            </Array>
          </mxGeometry>
        </mxCell>
        <mxCell id="2iq9fQst8AqPEypmPXLH-19" value="onSystemReady" style="text;html=1;align=center;verticalAlign=middle;resizable=0;points=[];;labelBackgroundColor=#ffffff;" vertex="1" connectable="0" parent="2iq9fQst8AqPEypmPXLH-18">
          <mxGeometry x="0.0594" y="2" relative="1" as="geometry">
            <mxPoint as="offset"/>
          </mxGeometry>
        </mxCell>
        <mxCell id="2iq9fQst8AqPEypmPXLH-21" value="" style="edgeStyle=orthogonalEdgeStyle;rounded=0;orthogonalLoop=1;jettySize=auto;html=1;" edge="1" parent="1" source="2iq9fQst8AqPEypmPXLH-15" target="2iq9fQst8AqPEypmPXLH-20">
          <mxGeometry relative="1" as="geometry">
            <Array as="points">
              <mxPoint x="480" y="248"/>
              <mxPoint x="480" y="248"/>
            </Array>
          </mxGeometry>
        </mxCell>
        <mxCell id="2iq9fQst8AqPEypmPXLH-22" value="onSystemReady" style="text;html=1;align=center;verticalAlign=middle;resizable=0;points=[];;labelBackgroundColor=#ffffff;" vertex="1" connectable="0" parent="2iq9fQst8AqPEypmPXLH-21">
          <mxGeometry x="0.122" y="-3" relative="1" as="geometry">
            <mxPoint x="5" y="-18" as="offset"/>
          </mxGeometry>
        </mxCell>
        <mxCell id="2iq9fQst8AqPEypmPXLH-112" style="edgeStyle=orthogonalEdgeStyle;curved=1;rounded=0;orthogonalLoop=1;jettySize=auto;html=1;exitX=1;exitY=0.863;exitDx=0;exitDy=0;exitPerimeter=0;entryX=0.9;entryY=0.133;entryDx=0;entryDy=0;entryPerimeter=0;" edge="1" parent="1" source="2iq9fQst8AqPEypmPXLH-23" target="2iq9fQst8AqPEypmPXLH-47">
          <mxGeometry relative="1" as="geometry">
            <mxPoint x="750" y="360" as="targetPoint"/>
            <Array as="points">
              <mxPoint x="770" y="309"/>
              <mxPoint x="770" y="348"/>
            </Array>
          </mxGeometry>
        </mxCell>
        <mxCell id="2iq9fQst8AqPEypmPXLH-23" value="" style="html=1;points=[];perimeter=orthogonalPerimeter;" vertex="1" parent="1">
          <mxGeometry x="730" y="240" width="10" height="80" as="geometry"/>
        </mxCell>
        <mxCell id="2iq9fQst8AqPEypmPXLH-24" value="" style="edgeStyle=orthogonalEdgeStyle;rounded=0;orthogonalLoop=1;jettySize=auto;html=1;" edge="1" parent="1" source="2iq9fQst8AqPEypmPXLH-20" target="2iq9fQst8AqPEypmPXLH-23">
          <mxGeometry relative="1" as="geometry">
            <Array as="points">
              <mxPoint x="710" y="248"/>
              <mxPoint x="710" y="248"/>
            </Array>
          </mxGeometry>
        </mxCell>
        <mxCell id="2iq9fQst8AqPEypmPXLH-25" value="onSystemReady" style="text;html=1;align=center;verticalAlign=middle;resizable=0;points=[];;labelBackgroundColor=#ffffff;" vertex="1" connectable="0" parent="2iq9fQst8AqPEypmPXLH-24">
          <mxGeometry x="0.2205" y="2" relative="1" as="geometry">
            <mxPoint as="offset"/>
          </mxGeometry>
        </mxCell>
        <mxCell id="2iq9fQst8AqPEypmPXLH-30" value="doKeyguardLocked" style="text;html=1;" vertex="1" parent="1">
          <mxGeometry x="750" y="310" width="125" height="30" as="geometry"/>
        </mxCell>
        <mxCell id="2iq9fQst8AqPEypmPXLH-31" value="&lt;pre style=&quot;background-color: rgb(255 , 255 , 255) ; font-size: 15pt&quot;&gt;&lt;pre style=&quot;font-size: 15pt&quot;&gt;StatusBarKeyguardViewManager&lt;/pre&gt;&lt;/pre&gt;" style="shape=umlLifeline;perimeter=lifelinePerimeter;whiteSpace=wrap;html=1;container=1;collapsible=0;recursiveResize=0;outlineConnect=0;rounded=1;shadow=0;comic=0;labelBackgroundColor=none;strokeWidth=1;fontFamily=Verdana;fontSize=12;align=center;" vertex="1" parent="1">
          <mxGeometry x="870" y="73" width="290" height="580" as="geometry"/>
        </mxCell>
        <mxCell id="2iq9fQst8AqPEypmPXLH-32" value="" style="html=1;points=[];perimeter=orthogonalPerimeter;" vertex="1" parent="2iq9fQst8AqPEypmPXLH-31">
          <mxGeometry x="140" y="240" width="10" height="40" as="geometry"/>
        </mxCell>
        <mxCell id="2iq9fQst8AqPEypmPXLH-58" value="" style="html=1;points=[];perimeter=orthogonalPerimeter;" vertex="1" parent="2iq9fQst8AqPEypmPXLH-31">
          <mxGeometry x="140" y="320" width="10" height="30" as="geometry"/>
        </mxCell>
        <mxCell id="2iq9fQst8AqPEypmPXLH-59" style="edgeStyle=orthogonalEdgeStyle;curved=1;rounded=0;orthogonalLoop=1;jettySize=auto;html=1;entryX=1;entryY=0.367;entryDx=0;entryDy=0;entryPerimeter=0;exitX=1.2;exitY=0.9;exitDx=0;exitDy=0;exitPerimeter=0;" edge="1" parent="2iq9fQst8AqPEypmPXLH-31" source="2iq9fQst8AqPEypmPXLH-32" target="2iq9fQst8AqPEypmPXLH-58">
          <mxGeometry relative="1" as="geometry">
            <mxPoint x="160" y="330" as="targetPoint"/>
            <Array as="points">
              <mxPoint x="180" y="276"/>
              <mxPoint x="180" y="331"/>
            </Array>
          </mxGeometry>
        </mxCell>
        <mxCell id="2iq9fQst8AqPEypmPXLH-60" value="reset" style="text;html=1;align=center;verticalAlign=middle;resizable=0;points=[];;labelBackgroundColor=#ffffff;" vertex="1" connectable="0" parent="2iq9fQst8AqPEypmPXLH-59">
          <mxGeometry x="-0.5044" y="-15" relative="1" as="geometry">
            <mxPoint x="16" y="15" as="offset"/>
          </mxGeometry>
        </mxCell>
        <mxCell id="2iq9fQst8AqPEypmPXLH-63" value="" style="html=1;points=[];perimeter=orthogonalPerimeter;" vertex="1" parent="2iq9fQst8AqPEypmPXLH-31">
          <mxGeometry x="140" y="383" width="10" height="37" as="geometry"/>
        </mxCell>
        <mxCell id="2iq9fQst8AqPEypmPXLH-64" style="edgeStyle=orthogonalEdgeStyle;curved=1;rounded=0;orthogonalLoop=1;jettySize=auto;html=1;exitX=1.1;exitY=0.833;exitDx=0;exitDy=0;exitPerimeter=0;" edge="1" parent="2iq9fQst8AqPEypmPXLH-31" source="2iq9fQst8AqPEypmPXLH-58">
          <mxGeometry relative="1" as="geometry">
            <mxPoint x="150" y="389" as="targetPoint"/>
            <mxPoint x="166" y="336.5" as="sourcePoint"/>
            <Array as="points">
              <mxPoint x="190" y="345"/>
              <mxPoint x="190" y="389"/>
            </Array>
          </mxGeometry>
        </mxCell>
        <mxCell id="2iq9fQst8AqPEypmPXLH-65" value="showBouncerOrKeyguard" style="text;html=1;align=center;verticalAlign=middle;resizable=0;points=[];;labelBackgroundColor=#ffffff;" vertex="1" connectable="0" parent="2iq9fQst8AqPEypmPXLH-64">
          <mxGeometry x="-0.5385" y="-6" relative="1" as="geometry">
            <mxPoint x="11" y="13" as="offset"/>
          </mxGeometry>
        </mxCell>
        <mxCell id="2iq9fQst8AqPEypmPXLH-36" value="&lt;pre style=&quot;background-color: rgb(255 , 255 , 255) ; font-size: 15pt&quot;&gt;&lt;pre style=&quot;font-size: 15pt&quot;&gt;StatusBarWindowManager&lt;/pre&gt;&lt;/pre&gt;" style="shape=umlLifeline;perimeter=lifelinePerimeter;whiteSpace=wrap;html=1;container=1;collapsible=0;recursiveResize=0;outlineConnect=0;rounded=1;shadow=0;comic=0;labelBackgroundColor=none;strokeWidth=1;fontFamily=Verdana;fontSize=12;align=center;" vertex="1" parent="1">
          <mxGeometry x="1870" y="80" width="230" height="620" as="geometry"/>
        </mxCell>
        <mxCell id="2iq9fQst8AqPEypmPXLH-37" value="&lt;pre style=&quot;background-color: rgb(255 , 255 , 255) ; font-size: 15pt&quot;&gt;&lt;pre style=&quot;font-size: 15pt&quot;&gt;WindowManager.updateViewLayout&lt;/pre&gt;&lt;/pre&gt;" style="html=1;points=[];perimeter=orthogonalPerimeter;" vertex="1" parent="2iq9fQst8AqPEypmPXLH-36">
          <mxGeometry x="110" y="256" width="10" height="314" as="geometry"/>
        </mxCell>
        <mxCell id="2iq9fQst8AqPEypmPXLH-39" value="&lt;pre style=&quot;background-color: rgb(255 , 255 , 255) ; font-size: 15pt&quot;&gt;&lt;pre style=&quot;font-size: 15pt&quot;&gt;WindowManagerService&lt;/pre&gt;&lt;/pre&gt;" style="shape=umlLifeline;perimeter=lifelinePerimeter;whiteSpace=wrap;html=1;container=1;collapsible=0;recursiveResize=0;outlineConnect=0;rounded=1;shadow=0;comic=0;labelBackgroundColor=none;strokeWidth=1;fontFamily=Verdana;fontSize=12;align=center;" vertex="1" parent="1">
          <mxGeometry x="-700" y="73" width="190" height="583" as="geometry"/>
        </mxCell>
        <mxCell id="2iq9fQst8AqPEypmPXLH-43" value="" style="html=1;points=[];perimeter=orthogonalPerimeter;" vertex="1" parent="2iq9fQst8AqPEypmPXLH-39">
          <mxGeometry x="90" y="75" width="10" height="45" as="geometry"/>
        </mxCell>
        <mxCell id="2iq9fQst8AqPEypmPXLH-41" value="&lt;pre style=&quot;background-color: rgb(255 , 255 , 255) ; font-size: 15pt&quot;&gt;&lt;pre style=&quot;font-size: 15pt&quot;&gt;ActivityManagerService&lt;/pre&gt;&lt;/pre&gt;" style="shape=umlLifeline;perimeter=lifelinePerimeter;whiteSpace=wrap;html=1;container=1;collapsible=0;recursiveResize=0;outlineConnect=0;rounded=1;shadow=0;comic=0;labelBackgroundColor=none;strokeWidth=1;fontFamily=Verdana;fontSize=12;align=center;" vertex="1" parent="1">
          <mxGeometry x="-500" y="70" width="320" height="575" as="geometry"/>
        </mxCell>
        <mxCell id="2iq9fQst8AqPEypmPXLH-52" value="" style="html=1;points=[];perimeter=orthogonalPerimeter;" vertex="1" parent="2iq9fQst8AqPEypmPXLH-41">
          <mxGeometry x="152.5" y="311.5" width="15" height="60" as="geometry"/>
        </mxCell>
        <mxCell id="2iq9fQst8AqPEypmPXLH-42" value="&lt;pre style=&quot;background-color: rgb(255 , 255 , 255) ; font-size: 15pt&quot;&gt;&lt;pre style=&quot;font-size: 15pt&quot;&gt;&lt;pre style=&quot;font-size: 15pt&quot;&gt;KeyguardController&lt;/pre&gt;&lt;/pre&gt;&lt;/pre&gt;" style="shape=umlLifeline;perimeter=lifelinePerimeter;whiteSpace=wrap;html=1;container=1;collapsible=0;recursiveResize=0;outlineConnect=0;rounded=1;shadow=0;comic=0;labelBackgroundColor=none;strokeWidth=1;fontFamily=Verdana;fontSize=12;align=center;" vertex="1" parent="1">
          <mxGeometry x="-170" y="72" width="190" height="573" as="geometry"/>
        </mxCell>
        <mxCell id="2iq9fQst8AqPEypmPXLH-55" value="" style="html=1;points=[];perimeter=orthogonalPerimeter;" vertex="1" parent="2iq9fQst8AqPEypmPXLH-42">
          <mxGeometry x="90" y="365" width="10" height="45" as="geometry"/>
        </mxCell>
        <mxCell id="2iq9fQst8AqPEypmPXLH-44" style="edgeStyle=orthogonalEdgeStyle;curved=1;rounded=0;orthogonalLoop=1;jettySize=auto;html=1;entryX=-0.2;entryY=0.1;entryDx=0;entryDy=0;entryPerimeter=0;" edge="1" parent="1" source="2iq9fQst8AqPEypmPXLH-43" target="7baba1c4bc27f4b0-9">
          <mxGeometry relative="1" as="geometry">
            <Array as="points">
              <mxPoint x="-550" y="176"/>
              <mxPoint x="-550" y="176"/>
            </Array>
          </mxGeometry>
        </mxCell>
        <mxCell id="2iq9fQst8AqPEypmPXLH-45" value="&lt;pre style=&quot;font-size: 15pt&quot;&gt;&lt;br&gt;&lt;/pre&gt;" style="text;html=1;align=center;verticalAlign=middle;resizable=0;points=[];;labelBackgroundColor=#ffffff;" vertex="1" connectable="0" parent="2iq9fQst8AqPEypmPXLH-44">
          <mxGeometry x="0.2376" y="-2" relative="1" as="geometry">
            <mxPoint as="offset"/>
          </mxGeometry>
        </mxCell>
        <mxCell id="2iq9fQst8AqPEypmPXLH-46" value="onSystemUiStarted" style="text;html=1;align=center;verticalAlign=middle;resizable=0;points=[];;labelBackgroundColor=#ffffff;" vertex="1" connectable="0" parent="2iq9fQst8AqPEypmPXLH-44">
          <mxGeometry x="0.0429" y="2" relative="1" as="geometry">
            <mxPoint as="offset"/>
          </mxGeometry>
        </mxCell>
        <mxCell id="2iq9fQst8AqPEypmPXLH-53" style="edgeStyle=orthogonalEdgeStyle;curved=1;rounded=0;orthogonalLoop=1;jettySize=auto;html=1;exitX=-0.1;exitY=0.5;exitDx=0;exitDy=0;exitPerimeter=0;" edge="1" parent="1" source="2iq9fQst8AqPEypmPXLH-113">
          <mxGeometry relative="1" as="geometry">
            <mxPoint x="-330" y="395" as="targetPoint"/>
            <mxPoint x="720" y="395" as="sourcePoint"/>
            <Array as="points">
              <mxPoint x="729" y="395"/>
            </Array>
          </mxGeometry>
        </mxCell>
        <mxCell id="2iq9fQst8AqPEypmPXLH-54" value="setLockScreenShown（true）" style="text;html=1;" vertex="1" parent="1">
          <mxGeometry x="130" y="371.5" width="140" height="30" as="geometry"/>
        </mxCell>
        <mxCell id="2iq9fQst8AqPEypmPXLH-56" style="edgeStyle=none;rounded=0;orthogonalLoop=1;jettySize=auto;html=1;entryX=-0.2;entryY=0.022;entryDx=0;entryDy=0;entryPerimeter=0;" edge="1" parent="1" source="2iq9fQst8AqPEypmPXLH-52" target="2iq9fQst8AqPEypmPXLH-55">
          <mxGeometry relative="1" as="geometry"/>
        </mxCell>
        <mxCell id="2iq9fQst8AqPEypmPXLH-57" value="setKeyguardShown" style="text;html=1;align=center;verticalAlign=middle;resizable=0;points=[];;labelBackgroundColor=#ffffff;" vertex="1" connectable="0" parent="2iq9fQst8AqPEypmPXLH-56">
          <mxGeometry x="0.2727" y="1" relative="1" as="geometry">
            <mxPoint as="offset"/>
          </mxGeometry>
        </mxCell>
        <mxCell id="2iq9fQst8AqPEypmPXLH-61" value="&lt;pre style=&quot;background-color: rgb(255 , 255 , 255) ; font-size: 15pt&quot;&gt;&lt;pre style=&quot;font-size: 15pt&quot;&gt;StatusBar&lt;/pre&gt;&lt;/pre&gt;" style="shape=umlLifeline;perimeter=lifelinePerimeter;whiteSpace=wrap;html=1;container=1;collapsible=0;recursiveResize=0;outlineConnect=0;rounded=1;shadow=0;comic=0;labelBackgroundColor=none;strokeWidth=1;fontFamily=Verdana;fontSize=12;align=center;" vertex="1" parent="1">
          <mxGeometry x="1190" y="80" width="110" height="650" as="geometry"/>
        </mxCell>
        <mxCell id="2iq9fQst8AqPEypmPXLH-72" style="edgeStyle=orthogonalEdgeStyle;curved=1;rounded=0;orthogonalLoop=1;jettySize=auto;html=1;entryX=1.2;entryY=0.075;entryDx=0;entryDy=0;entryPerimeter=0;exitX=0.9;exitY=0.4;exitDx=0;exitDy=0;exitPerimeter=0;" edge="1" parent="2iq9fQst8AqPEypmPXLH-61" source="2iq9fQst8AqPEypmPXLH-62" target="2iq9fQst8AqPEypmPXLH-71">
          <mxGeometry relative="1" as="geometry">
            <Array as="points">
              <mxPoint x="90" y="432"/>
              <mxPoint x="90" y="483"/>
            </Array>
          </mxGeometry>
        </mxCell>
        <mxCell id="2iq9fQst8AqPEypmPXLH-62" value="" style="html=1;points=[];perimeter=orthogonalPerimeter;" vertex="1" parent="2iq9fQst8AqPEypmPXLH-61">
          <mxGeometry x="50" y="420" width="10" height="30" as="geometry"/>
        </mxCell>
        <mxCell id="2iq9fQst8AqPEypmPXLH-129" style="edgeStyle=orthogonalEdgeStyle;curved=1;rounded=0;orthogonalLoop=1;jettySize=auto;html=1;entryX=1.3;entryY=0.45;entryDx=0;entryDy=0;entryPerimeter=0;" edge="1" parent="2iq9fQst8AqPEypmPXLH-61" target="2iq9fQst8AqPEypmPXLH-128">
          <mxGeometry relative="1" as="geometry">
            <mxPoint x="63" y="520" as="sourcePoint"/>
            <Array as="points">
              <mxPoint x="100" y="520"/>
              <mxPoint x="100" y="568"/>
            </Array>
          </mxGeometry>
        </mxCell>
        <mxCell id="2iq9fQst8AqPEypmPXLH-71" value="" style="html=1;points=[];perimeter=orthogonalPerimeter;" vertex="1" parent="2iq9fQst8AqPEypmPXLH-61">
          <mxGeometry x="50" y="480" width="10" height="40" as="geometry"/>
        </mxCell>
        <mxCell id="2iq9fQst8AqPEypmPXLH-128" value="" style="html=1;points=[];perimeter=orthogonalPerimeter;shadow=0;strokeColor=#000000;" vertex="1" parent="2iq9fQst8AqPEypmPXLH-61">
          <mxGeometry x="50" y="550" width="10" height="40" as="geometry"/>
        </mxCell>
        <mxCell id="2iq9fQst8AqPEypmPXLH-67" style="edgeStyle=none;rounded=0;orthogonalLoop=1;jettySize=auto;html=1;exitX=1.4;exitY=0.919;exitDx=0;exitDy=0;exitPerimeter=0;" edge="1" parent="1" source="2iq9fQst8AqPEypmPXLH-63">
          <mxGeometry relative="1" as="geometry">
            <mxPoint x="1240" y="497" as="targetPoint"/>
            <Array as="points"/>
          </mxGeometry>
        </mxCell>
        <mxCell id="2iq9fQst8AqPEypmPXLH-68" value="showKeyguard" style="text;html=1;align=center;verticalAlign=middle;resizable=0;points=[];;labelBackgroundColor=#ffffff;" vertex="1" connectable="0" parent="2iq9fQst8AqPEypmPXLH-67">
          <mxGeometry x="-0.2407" y="1" relative="1" as="geometry">
            <mxPoint as="offset"/>
          </mxGeometry>
        </mxCell>
        <mxCell id="2iq9fQst8AqPEypmPXLH-69" style="edgeStyle=none;rounded=0;orthogonalLoop=1;jettySize=auto;html=1;" edge="1" parent="1" source="2iq9fQst8AqPEypmPXLH-32">
          <mxGeometry relative="1" as="geometry">
            <mxPoint x="1970" y="340" as="targetPoint"/>
          </mxGeometry>
        </mxCell>
        <mxCell id="2iq9fQst8AqPEypmPXLH-70" value="setKeyguardShowing" style="text;html=1;align=center;verticalAlign=middle;resizable=0;points=[];;labelBackgroundColor=#ffffff;" vertex="1" connectable="0" parent="2iq9fQst8AqPEypmPXLH-69">
          <mxGeometry x="-0.1952" y="-3" relative="1" as="geometry">
            <mxPoint as="offset"/>
          </mxGeometry>
        </mxCell>
        <mxCell id="2iq9fQst8AqPEypmPXLH-73" value="showKeyguardImpl" style="text;html=1;align=center;verticalAlign=middle;resizable=0;points=[];;autosize=1;" vertex="1" parent="1">
          <mxGeometry x="1220" y="530" width="120" height="20" as="geometry"/>
        </mxCell>
        <mxCell id="2iq9fQst8AqPEypmPXLH-75" value="&lt;pre style=&quot;background-color: rgb(255 , 255 , 255) ; font-size: 15pt&quot;&gt;&lt;pre style=&quot;font-size: 15pt&quot;&gt;KeyguardBouncer&lt;/pre&gt;&lt;/pre&gt;" style="shape=umlLifeline;perimeter=lifelinePerimeter;whiteSpace=wrap;html=1;container=1;collapsible=0;recursiveResize=0;outlineConnect=0;rounded=1;shadow=0;comic=0;labelBackgroundColor=none;strokeWidth=1;fontFamily=Verdana;fontSize=12;align=center;" vertex="1" parent="1">
          <mxGeometry x="1320" y="80" width="160" height="610" as="geometry"/>
        </mxCell>
        <mxCell id="2iq9fQst8AqPEypmPXLH-80" value="" style="html=1;points=[];perimeter=orthogonalPerimeter;" vertex="1" parent="2iq9fQst8AqPEypmPXLH-75">
          <mxGeometry x="75" y="400" width="15" height="40" as="geometry"/>
        </mxCell>
        <mxCell id="2iq9fQst8AqPEypmPXLH-79" value="&lt;pre style=&quot;background-color: rgb(255 , 255 , 255) ; font-size: 15pt&quot;&gt;&lt;pre style=&quot;font-size: 15pt&quot;&gt;KeyguardSecurityContainer&lt;/pre&gt;&lt;/pre&gt;" style="shape=umlLifeline;perimeter=lifelinePerimeter;whiteSpace=wrap;html=1;container=1;collapsible=0;recursiveResize=0;outlineConnect=0;rounded=1;shadow=0;comic=0;labelBackgroundColor=none;strokeWidth=1;fontFamily=Verdana;fontSize=12;align=center;" vertex="1" parent="1">
          <mxGeometry x="1500" y="80" width="260" height="613" as="geometry"/>
        </mxCell>
        <mxCell id="2iq9fQst8AqPEypmPXLH-83" value="" style="html=1;points=[];perimeter=orthogonalPerimeter;" vertex="1" parent="2iq9fQst8AqPEypmPXLH-79">
          <mxGeometry x="125" y="420" width="10" height="31" as="geometry"/>
        </mxCell>
        <mxCell id="2iq9fQst8AqPEypmPXLH-90" value="" style="html=1;points=[];perimeter=orthogonalPerimeter;" vertex="1" parent="2iq9fQst8AqPEypmPXLH-79">
          <mxGeometry x="125" y="480" width="10" height="41" as="geometry"/>
        </mxCell>
        <mxCell id="2iq9fQst8AqPEypmPXLH-94" style="edgeStyle=orthogonalEdgeStyle;curved=1;rounded=0;orthogonalLoop=1;jettySize=auto;html=1;entryX=1.5;entryY=0.183;entryDx=0;entryDy=0;entryPerimeter=0;" edge="1" parent="2iq9fQst8AqPEypmPXLH-79" source="2iq9fQst8AqPEypmPXLH-83" target="2iq9fQst8AqPEypmPXLH-90">
          <mxGeometry relative="1" as="geometry">
            <mxPoint x="140" y="489.5" as="targetPoint"/>
            <mxPoint x="180" y="435.5" as="sourcePoint"/>
            <Array as="points">
              <mxPoint x="170" y="444"/>
              <mxPoint x="170" y="488"/>
            </Array>
          </mxGeometry>
        </mxCell>
        <mxCell id="2iq9fQst8AqPEypmPXLH-95" value="showSecurityScreen" style="text;html=1;align=center;verticalAlign=middle;resizable=0;points=[];;labelBackgroundColor=#ffffff;" vertex="1" connectable="0" parent="2iq9fQst8AqPEypmPXLH-94">
          <mxGeometry x="-0.395" y="-8" relative="1" as="geometry">
            <mxPoint x="4" y="7" as="offset"/>
          </mxGeometry>
        </mxCell>
        <mxCell id="2iq9fQst8AqPEypmPXLH-81" style="edgeStyle=orthogonalEdgeStyle;curved=1;rounded=0;orthogonalLoop=1;jettySize=auto;html=1;" edge="1" parent="1" source="2iq9fQst8AqPEypmPXLH-63">
          <mxGeometry relative="1" as="geometry">
            <mxPoint x="1390" y="481.5" as="targetPoint"/>
          </mxGeometry>
        </mxCell>
        <mxCell id="2iq9fQst8AqPEypmPXLH-82" value="prepare" style="text;html=1;align=center;verticalAlign=middle;resizable=0;points=[];;labelBackgroundColor=#ffffff;" vertex="1" connectable="0" parent="2iq9fQst8AqPEypmPXLH-81">
          <mxGeometry x="0.0811" y="3" relative="1" as="geometry">
            <mxPoint y="1" as="offset"/>
          </mxGeometry>
        </mxCell>
        <mxCell id="2iq9fQst8AqPEypmPXLH-85" value="showPrimarySecurityScreen" style="text;html=1;align=center;verticalAlign=middle;resizable=0;points=[];;autosize=1;" vertex="1" parent="1">
          <mxGeometry x="1430" y="485" width="170" height="20" as="geometry"/>
        </mxCell>
        <mxCell id="2iq9fQst8AqPEypmPXLH-89" style="edgeStyle=orthogonalEdgeStyle;curved=1;rounded=0;orthogonalLoop=1;jettySize=auto;html=1;entryX=-0.2;entryY=-0.048;entryDx=0;entryDy=0;entryPerimeter=0;" edge="1" parent="1" source="2iq9fQst8AqPEypmPXLH-80" target="2iq9fQst8AqPEypmPXLH-83">
          <mxGeometry relative="1" as="geometry">
            <mxPoint x="1610" y="501" as="targetPoint"/>
            <Array as="points">
              <mxPoint x="1515" y="500"/>
              <mxPoint x="1515" y="499"/>
            </Array>
          </mxGeometry>
        </mxCell>
        <mxCell id="2iq9fQst8AqPEypmPXLH-101" style="edgeStyle=orthogonalEdgeStyle;curved=1;rounded=0;orthogonalLoop=1;jettySize=auto;html=1;entryX=0.48;entryY=0.352;entryDx=0;entryDy=0;entryPerimeter=0;" edge="1" parent="1" source="2iq9fQst8AqPEypmPXLH-99" target="7baba1c4bc27f4b0-2">
          <mxGeometry relative="1" as="geometry"/>
        </mxCell>
        <mxCell id="2iq9fQst8AqPEypmPXLH-103" value="onFinishedGoingToSleep" style="text;html=1;align=center;verticalAlign=middle;resizable=0;points=[];;labelBackgroundColor=#ffffff;" vertex="1" connectable="0" parent="2iq9fQst8AqPEypmPXLH-101">
          <mxGeometry x="-0.23" y="1" relative="1" as="geometry">
            <mxPoint x="23" y="-13" as="offset"/>
          </mxGeometry>
        </mxCell>
        <mxCell id="2iq9fQst8AqPEypmPXLH-102" style="edgeStyle=orthogonalEdgeStyle;curved=1;rounded=0;orthogonalLoop=1;jettySize=auto;html=1;" edge="1" parent="1" source="2iq9fQst8AqPEypmPXLH-100">
          <mxGeometry relative="1" as="geometry">
            <mxPoint x="520" y="296.5" as="targetPoint"/>
          </mxGeometry>
        </mxCell>
        <mxCell id="2iq9fQst8AqPEypmPXLH-104" value="&lt;span style=&quot;background-color: rgb(255 , 255 , 255)&quot;&gt;onFinishedGoingToSleep&lt;/span&gt;" style="text;html=1;align=center;verticalAlign=middle;resizable=0;points=[];;autosize=1;" vertex="1" parent="1">
          <mxGeometry x="345" y="275" width="150" height="20" as="geometry"/>
        </mxCell>
        <mxCell id="2iq9fQst8AqPEypmPXLH-105" style="edgeStyle=orthogonalEdgeStyle;curved=1;rounded=0;orthogonalLoop=1;jettySize=auto;html=1;" edge="1" parent="1" source="2iq9fQst8AqPEypmPXLH-96">
          <mxGeometry relative="1" as="geometry">
            <mxPoint x="728" y="295" as="targetPoint"/>
            <Array as="points">
              <mxPoint x="728" y="295"/>
            </Array>
          </mxGeometry>
        </mxCell>
        <mxCell id="2iq9fQst8AqPEypmPXLH-106" value="&lt;span style=&quot;background-color: rgb(255 , 255 , 255)&quot;&gt;onFinishedGoingToSleep&lt;/span&gt;" style="text;html=1;align=center;verticalAlign=middle;resizable=0;points=[];;autosize=1;" vertex="1" parent="1">
          <mxGeometry x="560" y="275" width="150" height="20" as="geometry"/>
        </mxCell>
        <mxCell id="2iq9fQst8AqPEypmPXLH-116" style="edgeStyle=orthogonalEdgeStyle;curved=1;rounded=0;orthogonalLoop=1;jettySize=auto;html=1;entryX=-0.1;entryY=0.4;entryDx=0;entryDy=0;entryPerimeter=0;" edge="1" parent="1" source="2iq9fQst8AqPEypmPXLH-115" target="2iq9fQst8AqPEypmPXLH-32">
          <mxGeometry relative="1" as="geometry">
            <mxPoint x="1000" y="320" as="targetPoint"/>
          </mxGeometry>
        </mxCell>
        <mxCell id="2iq9fQst8AqPEypmPXLH-117" value="show" style="text;html=1;align=center;verticalAlign=middle;resizable=0;points=[];;labelBackgroundColor=#ffffff;" vertex="1" connectable="0" parent="2iq9fQst8AqPEypmPXLH-116">
          <mxGeometry x="-0.2878" y="14" relative="1" as="geometry">
            <mxPoint as="offset"/>
          </mxGeometry>
        </mxCell>
        <mxCell id="2iq9fQst8AqPEypmPXLH-115" value="hadleshow" style="text;html=1;align=center;verticalAlign=middle;resizable=0;points=[];;autosize=1;" vertex="1" parent="1">
          <mxGeometry x="757.5" y="371.5" width="70" height="20" as="geometry"/>
        </mxCell>
        <mxCell id="2iq9fQst8AqPEypmPXLH-130" value="makeExpandedVisible" style="text;html=1;align=center;verticalAlign=middle;resizable=0;points=[];;autosize=1;" vertex="1" parent="1">
          <mxGeometry x="1235" y="610" width="130" height="20" as="geometry"/>
        </mxCell>
        <mxCell id="2iq9fQst8AqPEypmPXLH-131" value="PanelView" style="shape=umlLifeline;perimeter=lifelinePerimeter;whiteSpace=wrap;html=1;container=1;collapsible=0;recursiveResize=0;outlineConnect=0;rounded=1;shadow=0;comic=0;labelBackgroundColor=none;strokeWidth=1;fontFamily=Verdana;fontSize=12;align=center;" vertex="1" parent="1">
          <mxGeometry x="1780" y="80" width="70" height="700" as="geometry"/>
        </mxCell>
        <mxCell id="2iq9fQst8AqPEypmPXLH-140" style="edgeStyle=orthogonalEdgeStyle;curved=1;rounded=0;orthogonalLoop=1;jettySize=auto;html=1;entryX=1.167;entryY=0.2;entryDx=0;entryDy=0;entryPerimeter=0;exitX=1.25;exitY=0.5;exitDx=0;exitDy=0;exitPerimeter=0;" edge="1" parent="2iq9fQst8AqPEypmPXLH-131" source="2iq9fQst8AqPEypmPXLH-136" target="2iq9fQst8AqPEypmPXLH-139">
          <mxGeometry relative="1" as="geometry">
            <Array as="points">
              <mxPoint x="70" y="590"/>
              <mxPoint x="70" y="634"/>
            </Array>
          </mxGeometry>
        </mxCell>
        <mxCell id="2iq9fQst8AqPEypmPXLH-136" value="" style="html=1;points=[];perimeter=orthogonalPerimeter;" vertex="1" parent="2iq9fQst8AqPEypmPXLH-131">
          <mxGeometry x="28" y="580" width="12" height="20" as="geometry"/>
        </mxCell>
        <mxCell id="2iq9fQst8AqPEypmPXLH-139" value="" style="html=1;points=[];perimeter=orthogonalPerimeter;" vertex="1" parent="2iq9fQst8AqPEypmPXLH-131">
          <mxGeometry x="29" y="630" width="12" height="20" as="geometry"/>
        </mxCell>
        <mxCell id="2iq9fQst8AqPEypmPXLH-133" style="edgeStyle=orthogonalEdgeStyle;curved=1;rounded=0;orthogonalLoop=1;jettySize=auto;html=1;exitX=1;exitY=0.75;exitDx=0;exitDy=0;exitPerimeter=0;entryX=0;entryY=-0.1;entryDx=0;entryDy=0;entryPerimeter=0;" edge="1" parent="1" source="2iq9fQst8AqPEypmPXLH-128" target="2iq9fQst8AqPEypmPXLH-136">
          <mxGeometry relative="1" as="geometry">
            <mxPoint x="1800" y="662" as="targetPoint"/>
            <Array as="points">
              <mxPoint x="1800" y="660"/>
              <mxPoint x="1800" y="658"/>
            </Array>
          </mxGeometry>
        </mxCell>
        <mxCell id="2iq9fQst8AqPEypmPXLH-137" value="expand" style="text;html=1;align=center;verticalAlign=middle;resizable=0;points=[];;labelBackgroundColor=#ffffff;" vertex="1" connectable="0" parent="2iq9fQst8AqPEypmPXLH-133">
          <mxGeometry x="0.1855" relative="1" as="geometry">
            <mxPoint as="offset"/>
          </mxGeometry>
        </mxCell>
        <mxCell id="2iq9fQst8AqPEypmPXLH-141" value="requestLayout" style="text;html=1;align=center;verticalAlign=middle;resizable=0;points=[];;autosize=1;" vertex="1" parent="1">
          <mxGeometry x="1815" y="680" width="90" height="20" as="geometry"/>
        </mxCell>
      </root>
    </mxGraphModel>
  </diagram>
</mxfile>
